<?xml version="1.0" encoding="iso-8859-1"?>
<!-- Generator: Adobe Illustrator 18.0.0, SVG Export Plug-In . SVG Version: 6.00 Build 0)  -->
<!DOCTYPE svg PUBLIC "-//W3C//DTD SVG 1.1//EN" "http://www.w3.org/Graphics/SVG/1.1/DTD/svg11.dtd">
<svg version="1.1" id="Capa_1" xmlns="http://www.w3.org/2000/svg" xmlns:xlink="http://www.w3.org/1999/xlink" x="0px" y="0px"
	 viewBox="0 0 456.538 456.538" style="enable-background:new 0 0 456.538 456.538;" xml:space="preserve">
<path d="M427.049,119.97L143.15,26.579V20c0-11.046-8.954-20-20-20s-20,8.954-20,20v380.914
	c-34.067,4.941-63.183,21.913-80.762,41.345c-2.267,2.506-2.845,6.113-1.474,9.202c1.371,3.089,4.434,5.077,7.813,5.077h188.846
	c3.379,0,6.44-1.991,7.811-5.079c1.371-3.088,0.795-6.695-1.472-9.2c-17.579-19.428-46.699-36.396-80.763-41.341V239.087
	l283.898-93.391c5.555-1.827,9.31-7.015,9.31-12.863C436.358,126.985,432.604,121.798,427.049,119.97z"/>
<g>
</g>
<g>
</g>
<g>
</g>
<g>
</g>
<g>
</g>
<g>
</g>
<g>
</g>
<g>
</g>
<g>
</g>
<g>
</g>
<g>
</g>
<g>
</g>
<g>
</g>
<g>
</g>
<g>
</g>
</svg>
