<?xml version="1.0" encoding="iso-8859-1"?>
<!-- Generator: Adobe Illustrator 19.0.0, SVG Export Plug-In . SVG Version: 6.00 Build 0)  -->
<svg version="1.1" id="Layer_1" xmlns="http://www.w3.org/2000/svg" xmlns:xlink="http://www.w3.org/1999/xlink" x="0px" y="0px"
	 viewBox="0 0 329.015 329.015" style="enable-background:new 0 0 329.015 329.015;" xml:space="preserve">
<g>
	<g>
		<g>
			<path d="M164.508,71.909c-51.059,0-92.599,41.54-92.599,92.599c0,51.059,41.54,92.599,92.599,92.599s92.599-41.54,92.599-92.599
				C257.107,113.449,215.568,71.909,164.508,71.909z M164.508,239.107c-41.134,0-74.599-33.465-74.599-74.599
				c0-41.134,33.465-74.599,74.599-74.599c41.134,0,74.599,33.465,74.599,74.599C239.107,205.642,205.643,239.107,164.508,239.107z"
				/>
			<path d="M164.508,137.639c-14.815,0-26.869,12.053-26.869,26.869c0,14.816,12.053,26.869,26.869,26.869
				c14.816,0,26.869-12.053,26.869-26.869C191.378,149.692,179.323,137.639,164.508,137.639z M164.508,173.376
				c-4.89,0-8.869-3.979-8.869-8.869c0-4.89,3.979-8.869,8.869-8.869s8.869,3.979,8.869,8.869
				C173.378,169.397,169.398,173.376,164.508,173.376z"/>
			<path d="M320.016,155.508h-8.934C306.596,81.685,247.333,22.42,173.51,17.935V9c0-4.971-4.029-9-9-9c-4.971,0-9,4.029-9,9v8.934
				C81.685,22.42,22.42,81.685,17.935,155.508H9c-4.971,0-9,4.029-9,9s4.029,9,9,9h8.934
				c4.486,73.823,63.75,133.088,137.573,137.573v8.934c0,4.971,4.029,9,9,9s9-4.029,9-9v-8.934
				c73.823-4.486,133.088-63.75,137.573-137.573h8.934c4.971,0,9-4.029,9-9S324.987,155.508,320.016,155.508z M293.047,173.486
				c-4.42,63.912-55.649,115.141-119.561,119.561c-0.228-4.768-4.154-8.566-8.978-8.566s-8.75,3.798-8.978,8.566
				c-63.912-4.421-115.141-55.65-119.561-119.562c4.768-0.228,8.566-4.154,8.566-8.978c0-4.824-3.798-8.75-8.566-8.978
				c4.42-63.911,55.649-115.14,119.561-119.561c0.228,4.768,4.154,8.566,8.978,8.566s8.75-3.798,8.978-8.566
				c63.912,4.421,115.141,55.65,119.561,119.562c-4.768,0.228-8.566,4.154-8.566,8.978S288.279,173.258,293.047,173.486z"/>
		</g>
	</g>
</g>
<g>
</g>
<g>
</g>
<g>
</g>
<g>
</g>
<g>
</g>
<g>
</g>
<g>
</g>
<g>
</g>
<g>
</g>
<g>
</g>
<g>
</g>
<g>
</g>
<g>
</g>
<g>
</g>
<g>
</g>
</svg>
